HIERARCHY
ROOT Hips
{
	OFFSET -0.09297 91.81560 -12.71420
	CHANNELS 6 Xposition Yposition Zposition Zrotation Xrotation Yrotation
	JOINT Spine
	{
		OFFSET 0.00000 14.09320 -1.51142
		CHANNELS 3 Zrotation Xrotation Yrotation
		JOINT Spine1
		{
			OFFSET 0.00000 8.69660 0.00000
			CHANNELS 3 Zrotation Xrotation Yrotation
			JOINT Spine2
			{
				OFFSET 0.00000 8.69660 0.00000
				CHANNELS 3 Zrotation Xrotation Yrotation
				JOINT Spine3
				{
					OFFSET 0.00000 8.69660 0.00000
					CHANNELS 3 Zrotation Xrotation Yrotation
					JOINT Neck
					{
						OFFSET 0.00000 11.18130 1.11813
						CHANNELS 3 Zrotation Xrotation Yrotation
						JOINT Neck1
						{
							OFFSET 0.00000 5.70631 0.00000
							CHANNELS 3 Zrotation Xrotation Yrotation
							JOINT Head
							{
								OFFSET 0.00000 5.70631 0.00000
								CHANNELS 3 Zrotation Xrotation Yrotation
								End site
								{
									OFFSET 0.00000 9.71257 0.00000
								}
							}
						}
					}
					JOINT RightShoulder
					{
						OFFSET 0.00000 7.98668 5.19711
						CHANNELS 3 Zrotation Xrotation Yrotation
						JOINT RightArm
						{
							OFFSET 0.00000 18.31580 0.00000
							CHANNELS 3 Zrotation Xrotation Yrotation
							JOINT RightForeArm
							{
								OFFSET 0.00000 28.87420 0.00000
								CHANNELS 3 Zrotation Xrotation Yrotation
								JOINT RightHand
								{
									OFFSET 0.00000 23.87720 0.00000
									CHANNELS 3 Zrotation Xrotation Yrotation
									JOINT RightHandThumb1
									{
										OFFSET -2.41094 4.67063 3.47303
										CHANNELS 3 Zrotation Xrotation Yrotation
										JOINT RightHandThumb2
										{
											OFFSET 0.00000 3.95207 0.00000
											CHANNELS 3 Zrotation Xrotation Yrotation
											JOINT RightHandThumb3
											{
												OFFSET 0.00000 2.15568 0.00000
												CHANNELS 3 Zrotation Xrotation Yrotation
												End site
												{
													OFFSET 0.00000 1.91616 0.00000
												}
											}
										}
									}
									JOINT RightHandIndex1
									{
										OFFSET 0.00000 12.45500 2.51496
										CHANNELS 3 Zrotation Xrotation Yrotation
										JOINT RightHandIndex2
										{
											OFFSET 0.00000 4.79039 0.00000
											CHANNELS 3 Zrotation Xrotation Yrotation
											JOINT RightHandIndex3
											{
												OFFSET 0.00000 2.63472 0.00000
												CHANNELS 3 Zrotation Xrotation Yrotation
												End site
												{
													OFFSET 0.00000 1.91616 0.00000
												}
											}
										}
									}
									JOINT RightHandMiddle1
									{
										OFFSET 0.00000 12.45500 -0.07984
										CHANNELS 3 Zrotation Xrotation Yrotation
										JOINT RightHandMiddle2
										{
											OFFSET 0.00000 5.38919 0.00000
											CHANNELS 3 Zrotation Xrotation Yrotation
											JOINT RightHandMiddle3
											{
												OFFSET 0.00000 3.11376 0.00000
												CHANNELS 3 Zrotation Xrotation Yrotation
												End site
												{
													OFFSET 0.00000 2.03592 0.00000
												}
											}
										}
									}
									JOINT RightHandRing1
									{
										OFFSET 0.00000 11.07780 -2.67464
										CHANNELS 3 Zrotation Xrotation Yrotation
										JOINT RightHandRing2
										{
											OFFSET 0.00000 4.91015 0.00000
											CHANNELS 3 Zrotation Xrotation Yrotation
											JOINT RightHandRing3
											{
												OFFSET 0.00000 3.11376 0.00000
												CHANNELS 3 Zrotation Xrotation Yrotation
												End site
												{
													OFFSET 0.00000 2.03592 0.00000
												}
											}
										}
									}
									JOINT RightHandPinky1
									{
										OFFSET 0.00000 9.70055 -5.26943
										CHANNELS 3 Zrotation Xrotation Yrotation
										JOINT RightHandPinky2
										{
											OFFSET 0.00000 3.95207 0.00000
											CHANNELS 3 Zrotation Xrotation Yrotation
											JOINT RightHandPinky3
											{
												OFFSET 0.00000 2.15568 0.00000
												CHANNELS 3 Zrotation Xrotation Yrotation
												End site
												{
													OFFSET 0.00000 1.91616 0.00000
												}
											}
										}
									}
								}
							}
						}
					}
					JOINT LeftShoulder
					{
						OFFSET 0.00000 7.98668 5.19711
						CHANNELS 3 Zrotation Xrotation Yrotation
						JOINT LeftArm
						{
							OFFSET 0.00000 18.31580 0.00000
							CHANNELS 3 Zrotation Xrotation Yrotation
							JOINT LeftForeArm
							{
								OFFSET 0.00000 28.87420 0.00000
								CHANNELS 3 Zrotation Xrotation Yrotation
								JOINT LeftHand
								{
									OFFSET 0.00000 23.87720 0.00000
									CHANNELS 3 Zrotation Xrotation Yrotation
									JOINT LeftHandThumb1
									{
										OFFSET 2.41094 4.67063 3.47303
										CHANNELS 3 Zrotation Xrotation Yrotation
										JOINT LeftHandThumb2
										{
											OFFSET 0.00000 3.95207 0.00000
											CHANNELS 3 Zrotation Xrotation Yrotation
											JOINT LeftHandThumb3
											{
												OFFSET 0.00000 2.15568 0.00000
												CHANNELS 3 Zrotation Xrotation Yrotation
												End site
												{
													OFFSET 0.00000 1.60000 0.00000
												}
											}
										}
									}
									JOINT LeftHandIndex1
									{
										OFFSET 0.00000 12.45500 2.51496
										CHANNELS 3 Zrotation Xrotation Yrotation
										JOINT LeftHandIndex2
										{
											OFFSET 0.00000 4.79039 0.00000
											CHANNELS 3 Zrotation Xrotation Yrotation
											JOINT LeftHandIndex3
											{
												OFFSET 0.00000 2.63472 0.00000
												CHANNELS 3 Zrotation Xrotation Yrotation
												End site
												{
													OFFSET 0.00000 1.91616 0.00000
												}
											}
										}
									}
									JOINT LeftHandMiddle1
									{
										OFFSET 0.00000 12.45500 -0.07984
										CHANNELS 3 Zrotation Xrotation Yrotation
										JOINT LeftHandMiddle2
										{
											OFFSET 0.00000 5.38919 0.00000
											CHANNELS 3 Zrotation Xrotation Yrotation
											JOINT LeftHandMiddle3
											{
												OFFSET 0.00000 3.11376 0.00000
												CHANNELS 3 Zrotation Xrotation Yrotation
												End site
												{
													OFFSET 0.00000 2.03592 0.00000
												}
											}
										}
									}
									JOINT LeftHandRing1
									{
										OFFSET 0.00000 11.07780 -2.67464
										CHANNELS 3 Zrotation Xrotation Yrotation
										JOINT LeftHandRing2
										{
											OFFSET 0.00000 4.91015 0.00000
											CHANNELS 3 Zrotation Xrotation Yrotation
											JOINT LeftHandRing3
											{
												OFFSET 0.00000 3.11376 0.00000
												CHANNELS 3 Zrotation Xrotation Yrotation
												End site
												{
													OFFSET 0.00000 2.03592 0.00000
												}
											}
										}
									}
									JOINT LeftHandPinky1
									{
										OFFSET 0.00000 9.70055 -5.26943
										CHANNELS 3 Zrotation Xrotation Yrotation
										JOINT LeftHandPinky2
										{
											OFFSET 0.00000 3.95207 0.00000
											CHANNELS 3 Zrotation Xrotation Yrotation
											JOINT LeftHandPinky3
											{
												OFFSET 0.00000 2.15568 0.00000
												CHANNELS 3 Zrotation Xrotation Yrotation
												End site
												{
													OFFSET 0.00000 1.91616 0.00000
												}
											}
										}
									}
								}
							}
						}
					}
				}
			}
		}
	}
	JOINT RightUpLeg
	{
		OFFSET -10.06560 0.00000 0.00000
		CHANNELS 3 Zrotation Xrotation Yrotation
		JOINT RightLeg
		{
			OFFSET 0.00000 -42.98740 0.00000
			CHANNELS 3 Zrotation Xrotation Yrotation
			JOINT RightFoot
			{
				OFFSET 0.00000 -44.62500 0.00000
				CHANNELS 3 Zrotation Xrotation Yrotation
				JOINT RightForeFoot
				{
					OFFSET 0.00000 -3.74821 0.00000
					CHANNELS 3 Zrotation Xrotation Yrotation
					JOINT RightToeBase
					{
						OFFSET 0.00000 0.00000 14.67920
						CHANNELS 3 Zrotation Xrotation Yrotation
						End site
						{
							OFFSET 0.00000 0.00000 10.36040
						}
					}
				}
			}
		}
	}
	JOINT LeftUpLeg
	{
		OFFSET 10.06560 0.00000 0.00000
		CHANNELS 3 Zrotation Xrotation Yrotation
		JOINT LeftLeg
		{
			OFFSET 0.00000 -42.98740 0.00000
			CHANNELS 3 Zrotation Xrotation Yrotation
			JOINT LeftFoot
			{
				OFFSET 0.00000 -44.62500 0.00000
				CHANNELS 3 Zrotation Xrotation Yrotation
				JOINT LeftForeFoot
				{
					OFFSET 0.00000 -3.74821 0.00000
					CHANNELS 3 Zrotation Xrotation Yrotation
					JOINT LeftToeBase
					{
						OFFSET 0.00000 0.00000 14.67920
						CHANNELS 3 Zrotation Xrotation Yrotation
						End site
						{
							OFFSET 0.00000 0.00000 10.67280
						}
					}
				}
			}
		}
	}
}
MOTION
Frames: 5
Frame Time: 0.016667
-9.58945 91.889 -109.884 -5.67993 0.469408 -178.304 -7.0182 0.517533 0.0380779 -1.93644 5.11352 0.726667 -1.18349 2.31491 -1.28578 3.48808 2.83807 -1.58396 -2.29619 7.88579 1.6862 -2.20168 -3.73523 -0.0751941 -2.48939 -18.4226 0.0474738 101.916 -20.2316 4.17391 50.992 2.93656 12.7725 0.00246351 73.9052 57.5117 -9.53457 -6.88682 -2.14753e-05 18.4191 52.8936 -14.8739 -9.54166e-15 -1.59028e-14 -0.0 -6.36111e-15 6.36111e-15 -0.0 16.9568 -3.97569e-16 1.09332e-15 20.3482 4.96962e-15 5.46658e-16 16.9568 3.97569e-16 -8.57259e-16 31.7081 -1.59028e-15 6.4605e-15 38.0497 -7.35503e-15 -1.39149e-14 31.7081 -2.38542e-15 -5.56597e-15 36.8699 -3.97569e-16 -4.47266e-16 44.2438 -4.57205e-15 -7.15625e-15 36.8699 5.06901e-15 3.77691e-15 54.8894 1.98785e-15 1.92573e-15 65.8673 -6.55989e-15 -3.97569e-15 54.8894 -2.94201e-14 -3.99557e-14 -98.6394 -19.0883 -2.84458 -63.7907 0.360309 32.6793 -6.86187e-06 36.617 -0.3419 0.93572 -5.84145 -4.79111e-06 -25.3914 23.0412 10.5242 3.01054e-15 -24.0629 3.48325e-15 1.86071e-15 -20.0524 1.35432e-14 -12.5531 4.77083e-15 3.18055e-15 -15.0637 -7.95139e-16 3.18055e-15 -12.5531 -4.47266e-16 6.36111e-15 -21.3343 7.95139e-16 3.18055e-15 -25.6011 5.56597e-15 -3.18055e-15 -21.3342 1.59028e-15 -6.36111e-15 -24.3358 3.18055e-15 9.54166e-15 -29.203 -3.97569e-15 3.18055e-15 -24.3358 -4.77083e-15 2.22639e-14 -35.2033 -1.98785e-15 1.27222e-14 -42.2439 -3.18055e-15 -0.0 -35.2033 6.36111e-15 -1.59028e-15 -6.48034 0.306572 -8.06174 -5.33643e-17 12.5911 8.14732e-16 -0.0979805 -14.9386 -5.88337 9.93923e-17 -3.97569e-16 -1.59028e-15 4.94882e-16 10.5473 -1.61761e-15 -2.52545 0.023835 23.7767 1.51103e-15 14.8361 -6.58049e-15 -1.64399 -7.52265 -4.62237 -0.0 -7.95139e-16 -0.0 6.55266e-17 -2.77862 9.5529e-15
-2.57432 91.5461 -97.7941 -9.41812 2.30798 -158.239 1.95751 8.03352 -0.397963 -0.801271 6.52876 0.107433 0.777153 3.33333 -1.10159 2.24858 3.86596 -1.09912 -5.24219 10.0949 9.47139 -1.16442 -7.33665 16.6399 -4.64618 -22.7418 1.22255 102.532 -17.4066 3.80461 50.2751 7.58641 1.45746 0.00108489 72.975 68.596 -12.8233 -2.22757 1.83697e-05 16.3897 58.2514 -14.0416 -6.17947e-31 -2.22639e-14 -1.59028e-15 -3.18055e-15 3.18055e-15 -0.0 13.0941 -9.54166e-15 -0.0 15.7129 0.0 -0.0 13.0941 -3.18055e-15 4.37326e-15 36.56 -3.18055e-15 4.77083e-15 43.872 -4.77083e-15 3.18055e-15 36.56 1.98785e-15 -0.0 49.3217 -3.18055e-15 3.18055e-15 59.1861 -3.97569e-15 -9.54166e-15 49.3217 -6.36111e-15 -2.54444e-14 82.1039 -1.59028e-15 -3.18055e-15 98.5247 6.36111e-15 6.36111e-15 82.1039 9.54166e-15 -2.54444e-14 -95.5785 -19.1858 -1.83876 -67.7106 4.37703 15.8198 -0.163509 68.85 -37.2353 1.03865 2.05459 0.00111882 -32.9068 26.1639 15.9251 -3.29301e-15 -17.9148 -3.65599e-16 -1.37828e-15 -14.929 8.22916e-16 -13.3317 -6.36111e-15 -1.59028e-15 -15.9981 -3.18055e-15 -1.59028e-15 -13.3317 3.18055e-15 6.75868e-15 -28.4136 3.18055e-15 3.18055e-15 -34.0963 -3.18055e-15 5.56597e-15 -28.4136 -6.36111e-15 1.59028e-14 -34.8383 0.0 4.77083e-15 -41.806 0.0 1.11319e-14 -34.8383 0.0 6.36111e-15 -53.8837 -6.36111e-15 7.15625e-15 -64.6606 -1.19271e-14 1.90833e-14 -53.8837 -1.11319e-14 1.27222e-14 -5.0884 -1.08986 -12.1956 5.41761e-16 18.9178 -5.04324e-15 -6.90743 -15.2799 -15.4927 4.96962e-16 -3.97569e-16 -7.95139e-16 6.52402e-16 11.0611 -8.1019e-16 6.86655 -17.7169 22.275 -3.77979e-15 47.147 -1.87058e-14 -12.3792 12.5904 -20.0679 -4.77083e-15 1.59028e-15 3.18055e-15 1.81052e-15 -15.8876 6.61375e-15
-13.8118 91.5595 -97.5648 -6.87576 5.76365 -177.546 -7.88266 3.70349 0.289752 -2.3728 7.68886 0.819528 -2.53145 3.93024 -0.570129 2.93513 3.83179 -1.33329 -0.516216 34.5473 0.628224 3.94215 -18.7149 -0.481639 2.30412 -29.0375 -0.181496 93.8669 -20.3187 1.34432 57.5618 6.61771 -6.25035 0.101979 51.1705 24.9363 -0.117125 -7.2509 -0.00130064 21.6898 42.3912 -14.9955 1.5256e-15 -0.931992 -3.97622e-15 -1.59836e-15 -0.77667 -5.96409e-16 29.8343 9.54166e-15 1.19271e-14 35.8011 6.36111e-15 1.11319e-14 29.8343 6.36111e-15 -3.18055e-15 40.734 9.54166e-15 1.00386e-14 48.8808 1.27222e-14 9.54166e-15 40.734 -3.08116e-15 3.18055e-15 41.9263 9.54166e-15 1.25234e-14 50.3116 1.27222e-14 3.18055e-14 41.9263 2.78299e-15 -0.0 53.9667 1.27222e-14 1.11319e-14 64.7601 7.95139e-16 1.27222e-14 53.9667 1.59028e-14 2.22639e-14 -92.4581 -19.2997 -0.812881 -70.5546 5.92308 11.5109 -0.038147 55.0817 -63.5242 -1.28548 -1.34272 0.00466155 -15.4874 41.4702 10.3922 1.82782e-16 -3.28909 3.1858e-15 -3.37089e-15 -2.7409 -3.98025e-15 -7.23663 -4.77083e-15 -0.0 -8.68394 3.18055e-15 -1.27222e-14 -7.23663 3.18055e-15 -6.36111e-15 -22.0303 -3.18055e-15 -1.59028e-14 -26.4364 3.18055e-15 -1.37161e-14 -22.0303 1.27222e-14 -6.36111e-15 -29.3404 -3.18055e-15 -7.15625e-15 -35.2085 3.18055e-15 -5.56597e-15 -29.3404 9.54166e-15 -1.74931e-14 -49.0096 0.0 -1.41137e-14 -58.8116 1.59028e-15 -2.22639e-14 -49.0096 -7.15625e-15 3.18055e-15 -9.20632 -0.654195 -8.98609 6.46422e-16 18.9584 1.68149e-15 -0.718498 -15.5835 -5.95177 -3.97569e-16 -3.97569e-16 -1.59028e-15 1.0969e-15 10.7442 -1.61865e-15 1.28207 1.08222 27.6386 -6.25247e-16 17.827 3.34097e-15 -4.15945 -4.96004 -1.79312 -7.95139e-16 -7.95139e-16 -6.36111e-15 -1.79418e-16 -1.61563 -6.36364e-15
-6.00601 91.5858 -96.9056 -5.12716 2.41629 -171.773 -2.42673 4.51087 -0.662554 -1.40246 5.33268 0.324208 -0.503487 3.04819 -4.49957 2.44585 2.82975 -2.13765 -4.55562 3.19909 0.932135 -4.93316 -7.47314 -1.67009 -5.6024 -23.2018 -0.137348 101.75 -16.026 3.28651 54.6406 10.1814 -11.9411 -179.988 77.4118 -112.721 -17.5468 -6.4757 8.43822e-06 30.0037 40.3011 -20.48 7.52068e-16 -1.03441 -2.3858e-15 -7.19214e-15 -0.861999 -2.38569e-15 34.2044 -1.59028e-15 -1.15295e-14 41.0453 5.1684e-15 -1.03368e-14 34.2044 8.54774e-15 2.22639e-14 48.9005 -1.59028e-15 -7.15625e-15 58.6807 -2.98177e-16 1.59028e-15 48.9005 -5.48646e-14 -1.07344e-13 51.6059 -3.97569e-15 -1.03368e-14 61.927 -1.98785e-16 6.36111e-15 51.6059 -2.22639e-14 -2.34566e-14 68.1049 -1.43125e-14 -1.03368e-14 81.7259 1.19271e-14 2.06736e-14 68.1049 1.82882e-14 -1.27222e-14 -96.686 -13.9828 -1.62251 -65.3692 5.05527 38.2087 0.00650918 87.6226 -53.4407 -1.95593 4.13767 5.74879e-06 -33.1521 4.31649 2.81518 1.40604e-15 -48.1341 -2.38283e-15 3.18055e-15 -40.1117 -0.0 -22.5584 -9.54166e-15 6.36111e-15 -27.0701 3.18055e-15 -3.18055e-15 -22.5584 0.0 -1.90833e-14 -37.7992 -3.18055e-15 9.54166e-15 -45.359 -7.72775e-15 3.18055e-15 -37.7991 -1.59028e-15 1.90833e-14 -41.8798 -3.18055e-15 9.54166e-15 -50.2558 7.95139e-16 -0.0 -41.8798 -9.54166e-15 6.36111e-15 -56.7588 -7.95139e-15 9.54166e-15 -68.1105 6.36111e-15 -6.36111e-15 -56.7588 3.18055e-15 -5.56597e-15 -4.31095 -5.16902 -9.56667 -1.02106e-16 15.997 2.8951e-15 -3.57973 -11.9903 -11.0458 -9.93923e-17 0.0 -1.59028e-15 -2.98177e-16 9.53651 -0.0 7.88251 -2.86593 26.026 -2.78299e-15 21.1836 -0.0 -7.2089 -3.08197 -5.43504 -7.95139e-16 -7.95139e-16 -0.0 -4.42225e-16 -3.97681 -6.37646e-15
-16.5882 90.9236 -94.0872 -7.4675 9.42364 -172.533 -8.36564 3.58687 -0.0739113 -1.38601 5.26155 0.589904 -1.20087 2.30088 -0.626646 3.1255 2.63146 -1.30886 -0.0448783 8.35304 -1.68834 -1.42374 -3.4008 -6.27051 -1.09503 -18.6077 -0.458935 94.9873 -18.7951 1.61138 30.5521 18.1287 31.4656 0.0946464 75.1051 30.0151 -8.95487 -2.83535 0.000975615 21.3402 55.7741 -17.9028 -0.0 -1.59028e-14 -0.0 -3.18055e-15 6.36111e-15 -0.0 14.4424 1.59028e-15 3.18055e-15 17.3308 1.59028e-15 -1.98785e-15 14.4424 -3.18055e-15 2.70844e-15 31.6752 3.18055e-15 5.1684e-15 38.0102 -3.18055e-15 -6.36111e-15 31.6752 -2.38542e-15 -1.98785e-14 39.1736 1.59028e-15 4.77083e-15 47.0083 1.59028e-15 -9.54166e-15 39.1736 -6.75868e-15 -1.59028e-14 62.1722 3.18055e-15 4.77083e-15 74.6066 -7.55382e-15 -1.59028e-14 62.1722 7.95139e-14 1.12115e-13 -94.3954 -17.955 -1.35826 -41.2949 17.1124 -18.2963 -0.0408517 80.0607 -41.9151 0.0527383 6.10717 -0.00401273 -41.3005 22.8247 18.8168 3.97569e-16 -19.208 -0.0 -1.42081e-15 -16.0066 -8.2721e-16 -9.2084 3.18055e-15 -7.95139e-16 -11.0501 -6.36111e-15 -3.97569e-16 -9.20841 -3.18055e-15 -1.49089e-15 -26.0076 3.18055e-15 -1.98785e-16 -31.2091 0.0 -3.18055e-15 -26.0076 -3.18055e-15 -1.59028e-15 -34.0804 0.0 1.88845e-15 -40.8965 -3.18055e-15 4.77083e-15 -34.0804 1.59028e-15 6.36111e-15 -55.8536 0.0 -0.0 -67.0243 6.11263e-15 -3.18055e-15 -55.8536 1.27222e-14 -2.38542e-14 -19.1862 -7.42655 -2.04643 2.87361e-15 50.9015 -8.8257e-15 10.3377 0.470806 -5.46884 -1.59028e-15 3.18055e-15 3.18055e-15 -2.87896e-15 -12.9464 4.89527e-15 -8.74697 4.50189 16.6331 -1.20321e-15 20.39 -3.39316e-15 4.81275 -10.2881 -2.66847 8.82781e-32 7.95139e-16 -6.36111e-15 -0.0 -2.63837 -0.0
